<?xml version="1.0"?>
<svg width="639.9999999999999" height="480" xmlns="http://www.w3.org/2000/svg" xmlns:svg="http://www.w3.org/2000/svg">
 <!-- Created with SVG-edit - https://github.com/SVG-Edit/svgedit-->
 <defs>
  <radialGradient cx="0.5" cy="0.5" id="svg_90" r="0.5" spreadMethod="pad">
   <stop offset="0" stop-color="#000000" stop-opacity="0"/>
   <stop offset="1" stop-color="#020202"/>
   <stop offset="1" stop-color="#000000" stop-opacity="0"/>
  </radialGradient>
  <linearGradient id="svg_263" x1="1" x2="1" y1="1" y2="0">
   <stop offset="0" stop-color="#000000"/>
   <stop offset="0.14479" stop-color="#ffffff"/>
   <stop offset="0.86354" stop-color="#ffffff" stop-opacity="0.99609"/>
   <stop offset="0.97292" stop-color="#000000" stop-opacity="0.99609"/>
  </linearGradient>
  <linearGradient id="svg_276" x1="0" x2="1" y1="1" y2="0">
   <stop offset="0" stop-color="#000000"/>
   <stop offset="0.0901" stop-color="#5656ff" stop-opacity="0.99609"/>
   <stop offset="0.17604" stop-color="#000000" stop-opacity="0.99609"/>
   <stop offset="0.26588" stop-color="#5656ff" stop-opacity="0.99609"/>
   <stop offset="0.35182" stop-color="#000000" stop-opacity="0.99609"/>
   <stop offset="0.44557" stop-color="#5656ff" stop-opacity="0.99609"/>
   <stop offset="0.55104" stop-color="#000000" stop-opacity="0.99609"/>
   <stop offset="0.66042" stop-color="#5656ff" stop-opacity="0.99609"/>
   <stop offset="0.7737" stop-color="#000000" stop-opacity="0.99609"/>
   <stop offset="0.86745" stop-color="#5656ff" stop-opacity="0.99609"/>
   <stop offset="1" stop-color="#000000" stop-opacity="0.99609"/>
  </linearGradient>
  <radialGradient id="svg_460" spreadMethod="pad">
   <stop offset="0.95111" stop-color="#000000" stop-opacity="0.99609"/>
   <stop offset="0.95501" stop-color="#ffffff" stop-opacity="0.99609"/>
   <stop offset="0.99408" stop-color="#000000"/>
   <stop offset="1" stop-color="#ffffff"/>
   <stop offset="1.00189" stop-color="0" stop-opacity="0"/>
  </radialGradient>
 </defs>
 <g class="layer">
  <title>Layer 1</title>
  <rect fill="url(#svg_460)" height="460.000007" id="svg_348" opacity="0.95" stroke="#ffffff" stroke-dasharray="null" stroke-linecap="null" stroke-linejoin="null" stroke-opacity="0" stroke-width="14" width="557.00005" x="45.35005" y="9.82276"/>
  <path d="m309.432771,278.081278l8.25582,-246.756108l33.023314,0l-8.255831,246.756108l-33.023303,0z" fill="#000000" id="svg_363" opacity="0.95" stroke="#ffffff" stroke-dasharray="null" stroke-linecap="null" stroke-linejoin="null" stroke-width="10" transform="rotate(3.04935, 330.073, 154.704)"/>
  <path d="m229.5028,160.375561l98.701742,-96.817352l98.701979,96.817352l-98.701979,96.817344l-98.701742,-96.817344z" fill="#000000" id="svg_377" opacity="0.95" stroke="#ffffff" stroke-dasharray="null" stroke-linecap="null" stroke-width="18" transform="rotate(-44.4999, 328.205, 160.375)"/>
  <polygon fill="none" id="svg_18"/>
  <polygon fill="none" id="svg_20"/>
  <polygon fill="none" id="svg_21"/>
  <ellipse cx="119.60001" cy="40.96668" fill="#000000" fill-opacity="0" id="svg_94" rx="0" ry="1" stroke="url(#svg_90)" stroke-dasharray="null" stroke-linecap="null" stroke-linejoin="null" stroke-width="9"/>
  <ellipse cx="101.89999" cy="239.63333" fill="none" fill-opacity="0" id="svg_13" rx="0" ry="1" stroke="#000000" stroke-dasharray="null" stroke-linecap="null" stroke-linejoin="null"/>
  <text fill="#000000" fill-opacity="0" font-family="Serif" font-size="11" id="svg_38" stroke="#000000" stroke-dasharray="null" stroke-linecap="null" stroke-linejoin="null" text-anchor="middle" x="757.89999" xml:space="preserve" y="437.63333"/>
  <ellipse cx="-132.10001" cy="154.63333" fill="none" id="svg_74" rx="1" ry="0" stroke="#ffffff" stroke-dasharray="null" stroke-linecap="null" stroke-linejoin="null" stroke-width="4"/>
  <rect fill="none" fill-opacity="0" height="1" id="svg_109" stroke="#000000" stroke-dasharray="null" stroke-linecap="null" stroke-linejoin="null" stroke-width="5" width="0" x="-244.10001" y="132.63333"/>
  <polygon fill="#000000" id="svg_137"/>
  <rect fill="url(#svg_263)" height="2" id="svg_310" stroke="url(#svg_276)" stroke-dasharray="null" stroke-linecap="null" stroke-linejoin="null" stroke-width="10" width="0" x="202.23334" y="169.06665"/>
  <path d="m320.138084,145.014616l21.148697,-18.318631l-21.148697,-18.31864l12.086923,-10.469482l33.239035,28.788122l-33.239035,28.797002" fill="#ffffff" id="svg_324" opacity="0.95" stroke="#000000" stroke-dasharray="null" stroke-linecap="null" stroke-linejoin="null" stroke-width="4" transform="rotate(-19.0493, 342.801, 126.701)"/>
  <path d="m294.899179,132.689916l21.370682,-26.931788l0,80.795364l-21.370682,26.93178l0,-80.795355z" fill="#ffffff" id="svg_337" opacity="0.95" stroke="#000000" stroke-dasharray="null" stroke-linecap="null" stroke-linejoin="null" stroke-width="4" transform="rotate(-0.734185, 305.584, 159.621)"/>
  <path d="m265.199641,56.264183l-86.056978,105.246799l86.066912,105.234645l31.302484,-38.26935l-54.774374,-66.965295l54.764434,-66.953148l-31.302478,-38.293651zm125.955221,0l-31.282611,38.281504l54.764434,66.953141l-54.764434,66.953148l31.282611,38.269357l86.076851,-105.234652l-86.076851,-105.222498z" fill="#000000" id="svg_315" stroke="#ffffff" stroke-dasharray="null" stroke-linecap="null" stroke-linejoin="null" stroke-width="12" transform="rotate(-1.06943, 328.189, 161.506)"/>
  <path d="m347.808143,153.745024l-18.104498,-18.196224l0,54.588648l18.104498,18.196208l0,-54.588632z" fill="#ffffff" id="svg_338" opacity="0.95" stroke="#000000" stroke-dasharray="null" stroke-linecap="null" stroke-linejoin="null" stroke-width="4" transform="rotate(-18.1731, 338.756, 171.939)"/>
  <path d="m183.440302,358.210845c-1.748012,0.151701 -3.537144,0.256001 -5.377681,0.256001l0,0c-1.645151,0 -3.244065,-0.080599 -4.801834,-0.203865l0,0l-13.5007,16.000354l-3.321185,-0.867569c-3.897007,-1.009801 -7.680917,-2.275603 -11.320847,-3.792672l0,0l-3.156683,-1.317966l0.812302,-20.101191c-2.868772,-1.848906 -5.547326,-3.911175 -8.025352,-6.172575l0,0l-21.34612,4.228838l-1.948516,-2.640667c-2.287807,-3.100505 -4.236323,-6.347977 -5.963738,-9.633381l0,0l-1.501221,-2.868233l14.492934,-14.791421c-0.904827,-3.133703 -1.506364,-6.366972 -1.814822,-9.661845l0,0l-19.207386,-9.363177l0.349577,-3.171636c0.411294,-3.797407 1.208192,-7.428909 2.159306,-10.918179l0,0l0.848278,-3.095771l21.423241,-2.73547c1.526936,-2.972505 3.326329,-5.788574 5.351965,-8.43871l0,0l-8.17445,-18.555658l2.467739,-2.228202c2.89963,-2.607469 6.004883,-4.968406 9.243829,-7.125506l0,0l2.80708,-1.867872l18.492752,10.70955c3.115563,-1.322672 6.375057,-2.413073 9.752791,-3.247472l0,0l6.704088,-19.181458l3.454855,-0.241798c1.861109,-0.128001 3.861031,-0.274967 6.035741,-0.274967l0,0c2.169567,0 4.164346,0.146967 6.02543,0.274967l0,0l3.45488,0.241798l6.77604,19.380589c3.249233,0.834371 6.39563,1.90107 9.413475,3.195308l0,0l18.749829,-10.86128l2.817367,1.867901c3.238922,2.1571 6.349342,4.522772 9.243804,7.116009l0,0l2.47805,2.228202l-8.426359,19.110356c1.835394,2.460503 3.490831,5.063237 4.90467,7.803442l0,0l22.091587,2.820803l0.858564,3.095771c0.966543,3.484535 1.758273,7.116009 2.159281,10.918179l0,0l0.349602,3.171607l-19.875732,9.690309c-0.298197,3.005703 -0.827731,5.963976 -1.619461,8.846412l0,0l14.976205,15.256051l-1.506364,2.882437c-1.722297,3.294873 -3.660502,6.551843 -5.95862,9.642879l0,0l-1.948491,2.63117l-21.875654,-4.32364c-2.318666,2.138105 -4.827549,4.105572 -7.511246,5.883376l0,0l0.832874,20.49469l-3.161826,1.317938c-3.645073,1.512334 -7.42384,2.7829 -11.320847,3.792701l0,0l-3.331472,0.867569l-13.531533,-16.04302l0,0zm17.361706,5.134339c1.167047,-0.360301 2.313523,-0.744331 3.449712,-1.156768l0,0l-0.781444,-19.356888l2.462621,-1.455436c3.686217,-2.209236 7.043379,-4.854638 10.025273,-7.86034l0,0l1.984492,-2.00537l20.69832,4.086606c0.622084,-0.957637 1.223596,-1.939003 1.804561,-2.939335l0,0l-14.158785,-14.435855l0.879137,-2.579034c1.249311,-3.712073 1.958802,-7.694407 2.169592,-11.852115l0,0l0.128526,-2.707035l18.806378,-9.164046c-0.195361,-1.109367 -0.42158,-2.21397 -0.678633,-3.318602l0,0l-20.92454,-2.669102l-1.125928,-2.498406c-1.681152,-3.731068 -3.907268,-7.225072 -6.56525,-10.448843l0,0l-1.758298,-2.147603l7.958542,-18.053125c-0.920281,-0.744331 -1.866252,-1.469668 -2.837939,-2.171332l0,0l-17.762714,10.28291l-2.616863,-1.270537c-3.876435,-1.882133 -8.066496,-3.309134 -12.487894,-4.238336l0,0l-2.858486,-0.60207l-6.416177,-18.347087c-0.622084,-0.028435 -1.228739,-0.042667 -1.819965,-0.042667l0,0c-0.601512,0 -1.208167,0.014232 -1.835394,0.042667l0,0l-6.369914,18.228556l-2.899605,0.568901c-4.498519,0.891269 -8.786248,2.341971 -12.780948,4.247804l0,0l-2.611695,1.25157l-17.474828,-10.121712c-0.966543,0.701664 -1.912515,1.427001 -2.827653,2.171332l0,0l7.747752,17.579055l-1.819965,2.152337c-2.837939,3.361269 -5.197724,7.040173 -6.966283,10.994015l0,0l-1.120785,2.507932l-20.25105,2.58374c-0.257053,1.104632 -0.483272,2.209236 -0.67349,3.318602l0,0l18.153461,8.851175l0.113097,2.725972c0.190218,4.40424 0.987116,8.628343 2.359785,12.57748l0,0l0.899709,2.597972l-13.71149,13.985514c0.575822,1.005038 1.177334,1.986404 1.804561,2.94407l0,0l20.13281,-3.996538l2.00504,2.00537c3.089848,3.114737 6.616681,5.826506 10.503402,8.073674l0,0l2.508884,1.445938l-0.766039,19.058221c1.136214,0.412437 2.287832,0.796467 3.45488,1.156768l0,0l12.744947,-15.113819l2.909891,0.331837c2.195282,0.25603 4.334016,0.421934 6.462439,0.421934l0,0c2.287832,0 4.596212,-0.184871 6.955997,-0.493036l0,0l2.935607,-0.379267l12.84264,15.23235l0,0zm5.809522,-39.244745l2.807055,3.977571l-17.803833,10.681115l-6.318509,-8.964915l0,0c-2.298093,0.516737 -4.714452,0.820168 -7.228479,0.820168l0,0c-17.397682,0 -31.494776,-13.004148 -31.494776,-29.028231l0,0c0,-16.04302 14.097069,-29.042434 31.494776,-29.042434l0,0c17.377135,0 31.479372,12.999414 31.479372,29.042434l0,0c0,6.585041 -2.400929,12.686514 -6.426463,17.560118l0,0l3.490856,4.954174m-11.978932,1.531301l0.555249,-0.327132l-5.074316,-7.201343l2.94075,-2.711769c3.845577,-3.555609 6.205387,-8.405512 6.205387,-13.805321l0,0c-0.020572,-10.799676 -9.500882,-19.541788 -21.197021,-19.560754l0,0c-11.72188,0.018966 -21.191903,8.75161 -21.21245,19.560754l0,0c0.020547,10.785415 9.500857,19.527527 21.21245,19.546493l0,0c2.616838,0 5.136007,-0.493036 7.572913,-1.35587l0,0l3.886721,-1.374836l5.110317,7.229778l0,0z" fill="#ffffff" id="svg_26" stroke="#000000" stroke-dasharray="null" stroke-linecap="null" stroke-linejoin="null"/>
  <path d="m160.425623,204.455949c6.785482,-7.779351 8.149314,-18.397712 4.457647,-27.324565l-13.62329,15.841835l-13.429015,-2.604305l-4.450181,-12.898503l13.589677,-15.804573c-9.348735,-2.347234 -19.646541,0.484345 -26.402159,8.233865c-7.125519,8.170573 -8.291295,19.481889 -3.882225,28.662114l-35.511727,40.718612c-3.777605,4.329309 -3.318017,10.894064 1.023795,14.660803c4.341813,3.762972 10.925522,3.308458 14.703159,-1.020851l35.470617,-40.677651c9.763495,3.137077 20.894538,0.421019 28.053702,-7.786783z" fill="#000000" id="svg_19" stroke="#ffffff" stroke-dasharray="null" stroke-linecap="null" stroke-linejoin="null" stroke-width="5" transform="rotate(10.0293, 122.752, 208.678)"/>
  <path d="m475.206981,201.121937c0,-7.750448 11.755273,-14.028259 26.267875,-14.028259c14.51269,0 26.267875,6.277811 26.267875,14.028259c0,7.750406 -11.755185,14.028259 -26.267875,14.028259c-14.512646,0 -26.267875,-6.277853 -26.267875,-14.028259zm88.317136,39.708923l0,-7.084662c0,-7.454143 -11.308748,-13.497836 -25.274623,-13.497836l-73.630626,0c-13.957787,0 -25.274623,6.043693 -25.274623,13.497836l0,7.084662c-0.024392,0.160817 -0.040697,0.325995 -0.040697,0.493311l0,40.806461c0,3.170712 4.809978,5.73942 10.747121,5.73942c5.929057,0 10.751209,-2.56875 10.751209,-5.73942l0,-40.202276l7.206748,0l0,45.946058l0.052915,0l0,64.920388c0,4.220362 6.417377,7.649723 14.328147,7.649723c7.914858,0 14.328147,-3.425 14.328147,-7.649723l0,-64.920388l9.453081,0l0,64.920388c0,4.220362 6.421332,7.649723 14.328104,7.649723c7.914814,0 14.328104,-3.425 14.328104,-7.649723l0,-64.920388l0.044784,0l0,-45.946058l7.206792,0l0,40.200054c0,3.170754 4.822152,5.741643 10.751209,5.741643c5.937231,0 10.747121,-2.570889 10.747121,-5.741643l0,-40.806419c-0.004043,-0.169497 -0.028479,-0.330314 -0.052915,-0.491131l0,0z" fill="#000000" id="svg_17" stroke="#ffffff" stroke-dasharray="null" stroke-linecap="null" stroke-linejoin="null" stroke-width="5"/>
  <path d="m294.072178,396.807205c-1.123444,0.098686 -2.273329,0.166528 -3.456258,0.166528l0,0c-1.057357,0 -2.084971,-0.052405 -3.086178,-0.132591l0,0l-8.676988,10.408016l-2.134553,-0.564332c-2.504633,-0.656862 -4.936578,-1.480252 -7.275993,-2.467077l0,0l-2.028821,-0.857327l0.522059,-13.075558c-1.843764,-1.202695 -3.565291,-2.544169 -5.157945,-4.015172l0,0l-13.719332,2.75079l-1.252317,-1.717717c-1.470383,-2.016836 -2.722699,-4.129263 -3.832939,-6.266378l0,0l-0.964828,-1.865745l9.314717,-9.621657c-0.581544,-2.038429 -0.968163,-4.141607 -1.166424,-6.284877l0,0l-12.344745,-6.090632l0.224702,-2.063116c0.264348,-2.470171 0.776504,-4.832406 1.387791,-7.102111l0,0l0.5452,-2.013742l13.76888,-1.779403c0.981367,-1.933588 2.137854,-3.765396 3.439753,-5.489268l0,0l-5.253809,-12.070234l1.586052,-1.449409c1.863604,-1.696123 3.859381,-3.231874 5.941085,-4.635035l0,0l1.804118,-1.215039l11.885437,6.966459c2.002414,-0.860421 4.097287,-1.569688 6.268219,-2.112459l0,0l4.308752,-12.477288l2.220446,-0.157278c1.196167,-0.08328 2.481527,-0.178872 3.879221,-0.178872l0,0c1.394393,0 2.676452,0.095592 3.872585,0.178872l0,0l2.22048,0.157278l4.355033,12.606817c2.088272,0.542739 4.110491,1.236632 6.050118,2.078522l0,0l12.050654,-7.065144l1.81072,1.215039c2.081704,1.40316 4.080783,2.942005 5.941085,4.628879l0,0l1.592654,1.449409l-5.415691,12.431039c1.179628,1.600532 2.243586,3.293561 3.152265,5.076026l0,0l14.198411,1.834902l0.551836,2.013774c0.62119,2.266612 1.130045,4.628847 1.387791,7.102111l0,0l0.224668,2.063116l-12.774275,6.303377c-0.191659,1.955181 -0.531996,3.879519 -1.040852,5.754482l0,0l9.625312,9.92387l-0.968129,1.874995c-1.106939,2.143271 -2.352654,4.261886 -3.829638,6.272565l0,0l-1.252317,1.711529l-14.05967,-2.812476c-1.490223,1.390817 -3.102717,2.670604 -4.82751,3.827082l0,0l0.535263,13.331522l-2.032122,0.857295c-2.342717,0.983762 -4.77136,1.810215 -7.275993,2.467077l0,0l-2.141155,0.564364l-8.696828,-10.435797l0,0zm11.158515,3.339842c0.750063,-0.23437 1.486922,-0.484178 2.217179,-0.752454l0,0l-0.502254,-12.591411l1.582751,-0.946731c2.369158,-1.437097 4.526818,-3.157876 6.443305,-5.113057l0,0l1.275457,-1.304475l13.302971,2.658292c0.399823,-0.622925 0.786407,-1.261288 1.159788,-1.911994l0,0l-9.099952,-9.390348l0.56504,-1.677592c0.802946,-2.414672 1.258918,-5.005122 1.394393,-7.709663l0,0l0.082626,-1.760872l12.086999,-5.961103c-0.125572,-0.721643 -0.27095,-1.440159 -0.436167,-2.158708l0,0l-13.448383,-1.736216l-0.723621,-1.625187c-1.080497,-2.426984 -2.511235,-4.699815 -4.219558,-6.796837l0,0l-1.130045,-1.396972l5.114998,-11.743334c-0.591447,-0.484178 -1.199433,-0.956013 -1.823958,-1.41241l0,0l-11.416227,6.688901l-1.681882,-0.826484c-2.491429,-1.224289 -5.184386,-2.15252 -8.026056,-2.756978l0,0l-1.837162,-0.391649l-4.123729,-11.934517c-0.399823,-0.0185 -0.789708,-0.027749 -1.169725,-0.027749l0,0c-0.386585,0 -0.776504,0.00925 -1.179628,0.027749l0,0l-4.093986,11.857425l-1.863604,0.370055c-2.891218,0.57977 -5.646995,1.523439 -8.214414,2.763134l0,0l-1.678546,0.81414l-11.231204,-6.584028c-0.62119,0.456397 -1.229176,0.928232 -1.817356,1.41241l0,0l4.979524,11.434933l-1.169691,1.400098c-1.823958,2.186426 -3.340623,4.579504 -4.477304,7.151454l0,0l-0.72032,1.631375l-13.015482,1.680686c-0.165217,0.718549 -0.310629,1.437066 -0.432866,2.158708l0,0l11.667371,5.757544l0.072689,1.773247c0.122237,2.864881 0.634393,5.612609 1.516664,8.181465l0,0l0.578244,1.689935l-8.812497,9.097385c0.37008,0.6538 0.756699,1.292163 1.159788,1.915088l0,0l12.939527,-2.5997l1.288661,1.304475c1.985875,2.026085 4.252602,3.790051 6.750599,5.251804l0,0l1.612494,0.940575l-0.492351,12.397102c0.730257,0.268308 1.470417,0.518115 2.22048,0.752486l0,0l8.191273,-9.83134l1.870205,0.215871c1.410932,0.166528 2.78552,0.274463 4.153471,0.274463l0,0c1.470383,0 2.954004,-0.120279 4.470668,-0.320744l0,0l1.886744,-0.246682l8.254059,9.908432l0,0zm3.733809,-25.528191l1.804153,2.587356l-11.442668,6.947927l-4.060943,-5.831574l0,0c-1.477019,0.33615 -3.030028,0.533521 -4.645822,0.533521l0,0c-11.181621,0 -20.241928,-8.459023 -20.241928,-18.882476l0,0c0,-10.435765 9.060306,-18.891694 20.241928,-18.891694l0,0c11.168418,0 20.232025,8.455929 20.232025,18.891694l0,0c0,4.283479 -1.543072,8.252402 -4.130331,11.422622l0,0l2.243586,3.222625m-7.698922,0.996106l0.356842,-0.212809l-3.261298,-4.684377l1.890045,-1.763966c2.47159,-2.312892 3.988254,-5.467675 3.988254,-8.9802l0,0c-0.013238,-7.025019 -6.106303,-12.711659 -13.623503,-12.724002l0,0c-7.533739,0.012344 -13.620168,5.692827 -13.633406,12.724002l0,0c0.013238,7.015801 6.106303,12.702409 13.633406,12.714753l0,0c1.681882,0 3.300977,-0.320712 4.86719,-0.881983l0,0l2.498031,-0.894326l3.284438,4.702909l0,0z" fill="#ffffff" id="svg_31" stroke="#000000" stroke-dasharray="null" stroke-linecap="null" stroke-linejoin="null" transform="rotate(-124.453, 290.811, 359.324)"/>
  <path d="m397.11363,388.281667c-1.210434,0.127278 -2.449389,0.214758 -3.723922,0.214758l0,0c-1.139229,0 -2.246445,-0.067595 -3.325164,-0.171018l0,0l-9.348959,13.422593l-2.299873,-0.727812c-2.698581,-0.847119 -5.318852,-1.908996 -7.839445,-3.181659l0,0l-2.185936,-1.105617l0.562509,-16.86272c-1.986582,-1.551046 -3.841424,-3.281081 -5.557398,-5.178135l0,0l-14.781749,3.547551l-1.349303,-2.215234c-1.584284,-2.60101 -2.933562,-5.325297 -4.129784,-8.081382l0,0l-1.039552,-2.406136l10.036052,-12.408427c-0.626583,-2.628836 -1.043117,-5.341181 -1.256732,-8.105238l0,0l-13.300732,-7.854682l0.242087,-2.660663c0.28482,-3.18563 0.836657,-6.23204 1.495278,-9.159172l0,0l0.587416,-2.597009l14.835152,-2.294772c1.057378,-2.493616 2.303438,-4.855983 3.70612,-7.079159l0,0l-5.66064,-15.566201l1.708868,-1.869227c2.007923,-2.187378 4.158257,-4.16794 6.401161,-5.977513l0,0l1.943849,-1.566959l12.805863,8.984183c2.157463,-1.109617 4.414579,-2.024331 6.75362,-2.724287l0,0l4.64243,-16.091198l2.39242,-0.202816c1.288769,-0.107394 2.673674,-0.230671 4.179623,-0.230671l0,0c1.502384,0 2.883724,0.123278 4.172493,0.230671l0,0l2.39242,0.202816l4.692293,16.258245c2.25001,0.699956 4.428815,1.594786 6.518639,2.680518l0,0l12.983875,-9.111432l1.950955,1.566959c2.242904,1.809573 4.396778,3.794106 6.401161,5.969571l0,0l1.715974,1.869197l-5.835087,16.031544c1.270992,2.0641 2.417351,4.247478 3.396394,6.54622l0,0l15.29796,2.366367l0.594546,2.597009c0.669316,2.923132 1.217589,5.969571 1.495278,9.159172l0,0l0.242087,2.660663l-13.763539,8.129093c-0.206509,2.521443 -0.573204,5.003146 -1.121452,7.421195l0,0l10.37071,12.798174l-1.043117,2.418049c-1.192657,2.764056 -2.53483,5.496286 -4.126219,8.089354l0,0l-1.349303,2.207262l-15.148444,-3.627089c-1.605626,1.79366 -3.34299,3.444128 -5.201374,4.93555l0,0l0.576745,17.192814l-2.189501,1.105617c-2.524159,1.268693 -5.140864,2.33454 -7.839445,3.181659l0,0l-2.306979,0.727783l-9.370326,-13.458361l0,0zm12.022634,4.30716c0.808161,-0.302267 1.602085,-0.624419 2.388879,-0.970397l0,0l-0.541167,-16.238331l1.705327,-1.220982c2.552631,-1.853313 4.877411,-4.072489 6.942303,-6.59396l0,0l1.37421,-1.682295l14.333178,3.428244c0.43077,-0.803379 0.847304,-1.626642 1.249601,-2.46579l0,0l-9.804661,-12.110131l0.608807,-2.163522c0.865105,-3.114034 1.356409,-6.454769 1.502384,-9.942667l0,0l0.089006,-2.270887l13.023018,-7.687664c-0.135279,-0.930628 -0.291925,-1.857284 -0.469937,-2.783941l0,0l-14.489824,-2.239089l-0.779664,-2.095898c-1.16416,-3.129948 -2.705712,-6.061051 -4.546318,-8.765454l0,0l-1.217564,-1.801602l5.511125,-15.144627c-0.637279,-0.624419 -1.292334,-1.232895 -1.965215,-1.821516l0,0l-12.300323,8.626263l-1.81211,-1.065848c-2.68437,-1.578902 -5.585895,-2.775999 -8.647631,-3.555493l0,0l-1.979427,-0.505083l-4.443076,-15.391242c-0.43077,-0.023855 -0.850869,-0.035768 -1.260297,-0.035768l0,0c-0.416534,0 -0.836633,0.011913 -1.270968,0.035768l0,0l-4.411039,15.291819l-2.007923,0.477227c-3.11514,0.747697 -6.084304,1.964678 -8.850525,3.563464l0,0l-1.808569,1.049934l-12.100944,-8.491014c-0.669316,0.588592 -1.324396,1.197067 -1.958085,1.821486l0,0l5.36515,14.746938l-1.260297,1.805573c-1.965215,2.819739 -3.599313,5.905947 -4.824007,9.222797l0,0l-0.776123,2.103869l-14.023427,2.167493c-0.178012,0.926657 -0.334658,1.853313 -0.466397,2.783941l0,0l12.570906,7.425166l0.078311,2.2868c0.131739,3.694713 0.683552,7.238264 1.634122,10.551143l0,0l0.623018,2.179436l-9.49491,11.732326c0.398733,0.843118 0.815266,1.666382 1.249601,2.469761l0,0l13.941551,-3.352677l1.388471,1.682295c2.139638,2.612923 4.581921,4.88781 7.273396,6.77295l0,0l1.73734,1.212981l-0.530447,15.987805c0.786794,0.345978 1.584259,0.668129 2.39242,0.970397l0,0l8.825618,-12.678867l2.015029,0.278382c1.520185,0.214758 3.001227,0.353979 4.475113,0.353979l0,0c1.584284,0 3.182779,-0.155105 4.816902,-0.413632l0,0l2.03283,-0.318151l8.893258,12.778289l0,0zm4.022977,-32.922091l1.943849,3.336734l-12.328819,8.960328l-4.375412,-7.520617l0,0c-1.59139,0.433487 -3.26468,0.688014 -5.005585,0.688014l0,0c-12.047565,0 -21.809493,-10.909063 -21.809493,-24.35154l0,0c0,-13.458361 9.761928,-24.363453 21.809493,-24.363453l0,0c12.033304,0 21.798822,10.905092 21.798822,24.363453l0,0c0,5.524142 -1.662595,10.642623 -4.450206,14.731054l0,0l2.417351,4.156027m-8.295147,1.284577l0.384496,-0.274411l-3.513872,-6.041167l2.036396,-2.274858c2.663003,-2.982815 4.297101,-7.051332 4.297101,-11.581193l0,0c-0.014236,-9.05975 -6.579149,-16.393465 -14.678507,-16.409349l0,0c-8.117135,0.015913 -14.674941,7.341628 -14.689178,16.409349l0,0c0.014236,9.047808 6.579149,16.381493 14.689178,16.397407l0,0c1.812135,0 3.556605,-0.413632 5.244106,-1.137444l0,0l2.691475,-1.153357l3.538804,6.065022l0,0z" fill="#ffffff" id="svg_32" stroke="#000000" stroke-dasharray="null" stroke-linecap="null" stroke-linejoin="null" transform="rotate(-81.2447, 393.6, 339.939)"/>
 </g>
</svg>