<?xml version="1.0"?>
<svg width="639.9999999999999" height="480" xmlns="http://www.w3.org/2000/svg" xmlns:svg="http://www.w3.org/2000/svg">
 <!-- Created with SVG-edit - https://github.com/SVG-Edit/svgedit-->
 <defs>
  <radialGradient cx="0.5" cy="0.5" id="svg_90" r="0.5" spreadMethod="pad">
   <stop offset="0" stop-color="#000000" stop-opacity="0"/>
   <stop offset="1" stop-color="#020202"/>
   <stop offset="1" stop-color="#000000" stop-opacity="0"/>
  </radialGradient>
  <linearGradient id="svg_263" x1="1" x2="1" y1="1" y2="0">
   <stop offset="0" stop-color="#000000"/>
   <stop offset="0.144792" stop-color="#ffffff"/>
   <stop offset="0.863542" stop-color="#ffffff" stop-opacity="0.996094"/>
   <stop offset="0.972917" stop-color="#000000" stop-opacity="0.996094"/>
  </linearGradient>
  <linearGradient id="svg_276" x1="0" x2="1" y1="1" y2="0">
   <stop offset="0" stop-color="#000000"/>
   <stop offset="0.090104" stop-color="#5656ff" stop-opacity="0.996094"/>
   <stop offset="0.176042" stop-color="#000000" stop-opacity="0.996094"/>
   <stop offset="0.265885" stop-color="#5656ff" stop-opacity="0.996094"/>
   <stop offset="0.351823" stop-color="#000000" stop-opacity="0.996094"/>
   <stop offset="0.445573" stop-color="#5656ff" stop-opacity="0.996094"/>
   <stop offset="0.551042" stop-color="#000000" stop-opacity="0.996094"/>
   <stop offset="0.660417" stop-color="#5656ff" stop-opacity="0.996094"/>
   <stop offset="0.773698" stop-color="#000000" stop-opacity="0.996094"/>
   <stop offset="0.867448" stop-color="#5656ff" stop-opacity="0.996094"/>
   <stop offset="1" stop-color="#000000" stop-opacity="0.996094"/>
  </linearGradient>
  <radialGradient id="svg_460" spreadMethod="pad">
   <stop offset="0.951107" stop-color="#000000" stop-opacity="0.996094"/>
   <stop offset="0.955013" stop-color="#ffffff" stop-opacity="0.996094"/>
   <stop offset="0.994076" stop-color="#000000"/>
   <stop offset="1" stop-color="#ffffff"/>
   <stop offset="1.001888" stop-color="0" stop-opacity="0"/>
  </radialGradient>
 </defs>
 <g class="layer">
  <title>Layer 1</title>
  <rect fill="url(#svg_460)" height="470.000026" id="svg_348" opacity="0.95" stroke="#ffffff" stroke-dasharray="null" stroke-linecap="null" stroke-linejoin="null" stroke-opacity="0" stroke-width="14" width="557.000055" x="46.350054" y="7.822757"/>
  <path d="m292.87932,269.456215l8.873783,-230.298914l35.495168,0l-8.873795,230.298914l-35.495156,0z" fill="#000000" id="svg_363" opacity="0.95" stroke="#ffffff" stroke-dasharray="null" stroke-linecap="null" stroke-linejoin="null" stroke-width="9" transform="rotate(7.88693, 315.064, 154.307)"/>
  <path d="m244.973196,57.363874l-95.826257,102.073736l95.837318,102.061948l34.855975,-37.115576l-60.992418,-64.946373l60.98135,-64.934592l-34.855968,-37.139144zm140.253791,0l-34.833846,37.127363l60.98135,64.934585l-60.98135,64.934592l34.833846,37.115583l95.848386,-102.061955l-95.848386,-102.050168z" fill="#000000" id="svg_315" stroke="#ffffff" stroke-dasharray="null" stroke-linecap="null" stroke-linejoin="null" stroke-width="12" transform="rotate(-1.06943, 315.111, 159.432)"/>
  <polygon fill="none" id="svg_18"/>
  <polygon fill="none" id="svg_20"/>
  <polygon fill="none" id="svg_21"/>
  <ellipse cx="119.60001" cy="40.96668" fill="#000000" fill-opacity="0" id="svg_94" rx="0" ry="1" stroke="url(#svg_90)" stroke-dasharray="null" stroke-linecap="null" stroke-linejoin="null" stroke-width="9"/>
  <ellipse cx="101.899994" cy="239.633331" fill="none" fill-opacity="0" id="svg_13" rx="0" ry="1" stroke="#000000" stroke-dasharray="null" stroke-linecap="null" stroke-linejoin="null"/>
  <text fill="#000000" fill-opacity="0" font-family="Serif" font-size="11" id="svg_38" stroke="#000000" stroke-dasharray="null" stroke-linecap="null" stroke-linejoin="null" text-anchor="middle" x="757.899994" xml:space="preserve" y="437.633331"/>
  <ellipse cx="-132.100006" cy="154.633331" fill="none" id="svg_74" rx="1" ry="0" stroke="#ffffff" stroke-dasharray="null" stroke-linecap="null" stroke-linejoin="null" stroke-width="4"/>
  <rect fill="none" fill-opacity="0" height="1" id="svg_109" stroke="#000000" stroke-dasharray="null" stroke-linecap="null" stroke-linejoin="null" stroke-width="5" width="0" x="-244.100006" y="132.633331"/>
  <polygon fill="#000000" id="svg_137"/>
  <rect fill="url(#svg_263)" height="2" id="svg_310" stroke="url(#svg_276)" stroke-dasharray="null" stroke-linecap="null" stroke-linejoin="null" stroke-width="10" width="0" x="202.233337" y="169.06665"/>
  <path d="m305.08844,133.04943l22.97027,-20.23693l-22.97027,-20.23694l13.12799,-11.56583l36.10197,31.80277l-36.10197,31.81258" fill="#ffffff" id="svg_324" opacity="0.95" stroke="#000000" stroke-dasharray="null" stroke-linecap="null" stroke-linejoin="null" stroke-width="4" transform="rotate(-19.0493, 329.705, 112.816)"/>
  <path d="m276.9361,116.12783l31.11782,-32.43581l0,97.30743l-31.11782,32.4358l0,-97.30742z" fill="#ffffff" id="svg_337" opacity="0.95" stroke="#000000" stroke-dasharray="null" stroke-linecap="null" stroke-linejoin="null" stroke-width="4" transform="rotate(-0.429744, 292.496, 148.562)"/>
  <path d="m349.2919,145.16435l-24.78266,-22.74987l0,68.24958l24.78266,22.74985l0,-68.24956z" fill="#ffffff" id="svg_338" opacity="0.95" stroke="#000000" stroke-dasharray="null" stroke-linecap="null" stroke-linejoin="null" stroke-width="4" transform="rotate(-18.35, 336.9, 167.914)"/>
  <path d="m471.934338,290.896951l0,-85.313409l0,0c0,-3.62441 2.770256,-6.56257 6.187531,-6.56257l74.250376,0c3.417282,0 6.187531,2.93816 6.187531,6.56257c0,3.624403 -2.770249,6.56257 -6.187531,6.56257l-6.187531,0l0,85.313409c0,3.62441 -2.770253,6.56257 -6.187531,6.56257l-74.250376,0l0,0c-3.417282,0 -6.187531,-2.93816 -6.187531,-6.56257c0,-3.62441 2.770249,-6.56257 6.187531,-6.56257l6.187531,0zm12.375063,-91.875979l0,0c3.417275,0 6.187531,2.93816 6.187531,6.56257c0,3.624403 -2.770256,6.56257 -6.187531,6.56257c-1.708636,0 -3.093766,-1.469085 -3.093766,-3.281285c0,-1.812203 1.38513,-3.281285 3.093766,-3.281285l6.187531,0m61.875313,6.56257l-68.062845,0m-12.375063,78.750839l0,0c1.708636,0 3.093766,1.469085 3.093766,3.281285c0,1.8122 -1.38513,3.281285 -3.093766,3.281285l6.187531,0m-6.187531,6.56257l0,0c3.417275,0 6.187531,-2.93816 6.187531,-6.56257l0,-6.56257" fill="#000000" id="svg_2" stroke="#ffffff" stroke-dasharray="null" stroke-linecap="null" stroke-linejoin="null" stroke-width="7"/>
  <path d="m173.176225,396.933184c7.983916,-0.062311 15.967827,-0.124633 23.951742,-0.186939c0.052567,-9.856065 0.105125,-19.712131 0.157687,-29.568185c7.945773,0 15.89155,0 23.837328,0c0,-9.916534 0,-19.833068 0,-29.749597c8.149253,0 16.298497,0 24.44775,0c0,-9.674664 0,-19.349328 0,-29.023992c8.048637,0 16.097273,0 24.145919,0c0,-9.674659 0,-19.349328 0,-29.023992c11.972354,0 23.944709,0 35.917063,0c0,4.837332 0,9.674664 0,14.511996c-7.948047,0 -15.896063,0 -23.844111,0c0,9.795596 0,19.591193 0,29.386795c-8.048632,0 -16.097269,0 -24.145919,0c0,9.795602 0,19.591198 0,29.386795c-8.048646,0 -16.097273,0 -24.145919,0c0,9.795596 0,19.591198 0,29.386779c-8.149253,0 -16.298501,0 -24.447745,0c0,9.91654 0,19.833068 0,29.749592c-12.072966,0 -24.145923,0 -36.218885,0c0.538216,-4.807092 -0.917534,-10.227623 0.34509,-14.869245l0,-0.000005z" fill="#000000" id="svg_4" stroke="#ffffff" stroke-dasharray="null" stroke-linecap="null" stroke-linejoin="null" stroke-width="6"/>
  <path d="m183.505277,240.241627l-61.752681,0c-3.780179,0 -6.85775,3.078758 -7.241988,7.010337l5.869707,0c4.032679,0 7.318836,3.512992 7.318836,7.824036c0,4.311044 -3.286157,7.824036 -7.318836,7.824036l-5.946554,0l0,3.908106l5.946554,0c4.039998,0 7.326155,3.512992 7.326155,7.83186c0,4.318868 -3.286157,7.827948 -7.326155,7.827948l-5.946554,0l0,3.900282l5.946554,0c4.032679,0 7.318836,3.512992 7.318836,7.824036c0,4.318868 -3.286157,7.839684 -7.318836,7.839684l-5.946554,0l0,3.888546l5.946554,0c4.032679,0 7.318836,3.512992 7.318836,7.83186s-3.286157,7.83186 -7.318836,7.83186l-5.946554,0l0,3.900282l5.942895,0c4.039998,0 7.326155,3.50908 7.326155,7.827948c0,4.318868 -3.286157,7.83186 -7.326155,7.83186l-5.928257,0c0.084167,4.240628 3.315433,7.65582 7.304199,7.65582l61.752681,0c4.039998,0 7.318836,-3.505168 7.318836,-7.824036l0,-92.910431c0,-4.318868 -3.278839,-7.824036 -7.318836,-7.824036zm1.372282,27.384127c0,2.159434 -1.63576,3.912018 -3.659418,3.912018l-37.509036,0c-2.023658,0 -3.659418,-1.752584 -3.659418,-3.912018l0,-17.115079c0,-2.159434 1.63576,-3.912018 3.659418,-3.912018l37.509036,0c2.023658,0 3.659418,1.752584 3.659418,3.912018l0,17.115079zm-60.837826,65.686697c0,-2.167258 -1.643079,-3.91593 -3.659418,-3.91593l-11.893109,0c-2.019999,0 -3.659418,1.748672 -3.659418,3.91593c0,2.159434 1.643079,3.912018 3.659418,3.912018l11.893109,0c2.016339,0 3.659418,-1.752584 3.659418,-3.912018zm-15.552527,-74.328345l11.896768,0c2.016339,0 3.655759,-1.752584 3.655759,-3.908106c0,-2.17117 -1.639419,-3.912018 -3.655759,-3.912018l-11.896768,0c-2.023658,0 -3.659418,1.740848 -3.659418,3.912018c-0.003659,2.155522 1.63576,3.908106 3.659418,3.908106zm0,19.564003l11.893109,0c2.023658,0 3.659418,-1.752584 3.659418,-3.912018s-1.639419,-3.912018 -3.659418,-3.912018l-11.893109,0c-2.023658,0 -3.659418,1.752584 -3.659418,3.912018s1.63576,3.912018 3.659418,3.912018zm0,19.560091l11.893109,0c2.016339,0 3.659418,-1.752584 3.659418,-3.91593s-1.639419,-3.908106 -3.659418,-3.908106l-11.893109,0c-2.023658,0 -3.663078,1.74476 -3.663078,3.908106s1.639419,3.91593 3.663078,3.91593zm-3.659418,15.640249c0,2.163346 1.6321,3.919842 3.659418,3.919842l11.893109,0c2.016339,0 3.659418,-1.756496 3.659418,-3.919842c0,-2.159434 -1.639419,-3.912018 -3.659418,-3.912018l-11.893109,0c-2.027318,0 -3.659418,1.752584 -3.659418,3.912018z" fill="#000000" id="svg_5" stroke="#ffffff" stroke-dasharray="null" stroke-linecap="null" stroke-linejoin="null" stroke-width="5"/>
  <path d="m431.979385,338.466168c0,10.922647 -24.400139,19.777204 -54.499237,19.777204m54.499237,-19.777204l0,0c0,10.922647 -24.400139,19.777204 -54.499237,19.777204c-30.099087,0 -54.499219,-8.854539 -54.499219,-19.777204m0,0l0,0c0,-10.922636 24.400132,-19.777198 54.499219,-19.777198c30.099098,0 54.499237,8.854562 54.499237,19.777198l0,79.108846c0,10.922636 -24.400139,19.777168 -54.499237,19.777168c-30.099087,0 -54.499219,-8.854533 -54.499219,-19.777168l0,-79.108846z" fill="#000000" id="svg_8" stroke="#ffffff" stroke-dasharray="null" stroke-linecap="null" stroke-linejoin="null" stroke-width="10"/>
  <path d="m321.262884,334.249987c13.010993,-31.660584 36.469126,-58.682913 56.425534,-85.500736c23.215027,17.209983 43.271508,55.071643 60.720783,81.441473c-15.563582,30.501387 -37.967051,58.279811 -58.149625,85.634162c-21.757182,-25.026669 -40.363112,-53.620136 -58.996687,-81.574899l-0.000005,0z" fill="#000000" id="svg_7" stroke="#ffffff" stroke-dasharray="null" stroke-linecap="null" stroke-linejoin="null" stroke-width="11" transform="rotate(91.6798, 379.836, 332.287)"/>
 </g>
</svg>